<?xml version="1.0" encoding="UTF-8"?>
<!DOCTYPE svg PUBLIC "-//W3C//DTD SVG 1.1//EN" "http://www.w3.org/Graphics/SVG/1.1/DTD/svg11.dtd">
<svg xmlns="http://www.w3.org/2000/svg" xmlns:xlink="http://www.w3.org/1999/xlink" version="1.1" width="74px" height="77px" viewBox="-0.5 -0.5 74 77" style="background-color: transparent;"><defs><linearGradient x1="0%" y1="0%" x2="0%" y2="100%" id="mx-gradient-a6aec7-1-4d4d4d-1-s-0"><stop offset="0%" style="stop-color:#A6AEC7"/><stop offset="100%" style="stop-color:#4D4D4D"/></linearGradient><linearGradient x1="0%" y1="100%" x2="0%" y2="0%" id="mx-gradient-ffffff-1-cccccc-1-s-0"><stop offset="0%" style="stop-color:#CCCCCC"/><stop offset="100%" style="stop-color:#ffffff"/></linearGradient><linearGradient x1="0%" y1="100%" x2="0%" y2="0%" id="mx-gradient-ffffff-1-808080-1-s-0"><stop offset="0%" style="stop-color:#808080"/><stop offset="100%" style="stop-color:#ffffff"/></linearGradient><linearGradient x1="0%" y1="0%" x2="100%" y2="0%" id="mx-gradient-ff3333-1-cccccc-1-e-0"><stop offset="0%" style="stop-color:#FF3333"/><stop offset="100%" style="stop-color:#CCCCCC"/></linearGradient></defs><g><path d="M 12.33 17 C 12.33 10.92 21.84 6 33.58 6 C 39.22 6 44.62 7.16 48.61 9.22 C 52.59 11.28 54.83 14.08 54.83 17 L 54.83 46 C 54.83 52.08 45.32 57 33.58 57 C 21.84 57 12.33 52.08 12.33 46 Z" fill="url(#mx-gradient-a6aec7-1-4d4d4d-1-s-0)" stroke="none" pointer-events="all"/><path d="M 54.83 17 C 54.83 23.08 45.32 28 33.58 28 C 21.84 28 12.33 23.08 12.33 17" fill="none" stroke="none" pointer-events="all"/><ellipse cx="33.58" cy="14.5" rx="21.25" ry="8.5" fill="#d4d5e6" stroke="none" pointer-events="all"/><rect x="43" y="1.78" width="6" height="63.56" fill="url(#mx-gradient-ffffff-1-cccccc-1-s-0)" stroke="none" transform="rotate(15,46,33.56)" pointer-events="all"/><rect x="46" y="1" width="3" height="63.56" fill="url(#mx-gradient-ffffff-1-808080-1-s-0)" stroke="none" transform="rotate(15,47.5,32.78)" pointer-events="all"/><path d="M 13 57.78 L 43 61.17 L 13 64.56 Z" fill="url(#mx-gradient-ff3333-1-cccccc-1-e-0)" stroke="none" transform="rotate(-165,28,61.17)" pointer-events="all"/></g></svg>
